<svg width="20" height="20" viewBox="0 0 20 20" fill="none" xmlns="http://www.w3.org/2000/svg">
<path d="M17.5666 5.83333C17.4226 5.58385 17.2164 5.37594 16.9682 5.22989C16.7199 5.08384 16.438 5.00464 16.15 5H5.48329L4.99996 3.11667C4.95113 2.93487 4.84218 2.77495 4.69086 2.66298C4.53954 2.551 4.35476 2.49356 4.16663 2.5H2.49996C2.27895 2.5 2.06698 2.5878 1.9107 2.74408C1.75442 2.90036 1.66663 3.11232 1.66663 3.33333C1.66663 3.55435 1.75442 3.76631 1.9107 3.92259C2.06698 4.07887 2.27895 4.16667 2.49996 4.16667H3.53329L5.83329 12.7167C5.88213 12.8985 5.99108 13.0584 6.1424 13.1704C6.29372 13.2823 6.47849 13.3398 6.66663 13.3333H14.1666C14.3205 13.3329 14.4713 13.2898 14.6022 13.2089C14.7331 13.128 14.839 13.0124 14.9083 12.875L17.6416 7.40833C17.7601 7.16001 17.8153 6.88623 17.8022 6.6114C17.7891 6.33658 17.7082 6.06927 17.5666 5.83333ZM13.65 11.6667H7.29996L5.94163 6.66667H16.15L13.65 11.6667Z" fill="#00AEEF"/>
<path d="M6.25 17.5C6.94036 17.5 7.5 16.9404 7.5 16.25C7.5 15.5596 6.94036 15 6.25 15C5.55964 15 5 15.5596 5 16.25C5 16.9404 5.55964 17.5 6.25 17.5Z" fill="#00AEEF"/>
<path d="M14.5833 17.5C15.2736 17.5 15.8333 16.9404 15.8333 16.25C15.8333 15.5596 15.2736 15 14.5833 15C13.8929 15 13.3333 15.5596 13.3333 16.25C13.3333 16.9404 13.8929 17.5 14.5833 17.5Z" fill="#00AEEF"/>
</svg>
