<svg width="30" height="30" viewBox="0 0 30 30" fill="none" xmlns="http://www.w3.org/2000/svg">
<path d="M20.9091 7.54541H9.54544V9.81814H20.9091V7.54541Z" fill="#00AEEF"/>
<path d="M9.54544 12.0909H11.8182V14.3637H9.54544V12.0909Z" fill="#00AEEF"/>
<path d="M11.8182 16.6364H9.54544V18.9091H11.8182V16.6364Z" fill="#00AEEF"/>
<path d="M9.54544 21.1818H11.8182V23.4545H9.54544V21.1818Z" fill="#00AEEF"/>
<path d="M16.3636 12.0909H14.0909V14.3637H16.3636V12.0909Z" fill="#00AEEF"/>
<path d="M14.0909 16.6364H16.3636V18.9091H14.0909V16.6364Z" fill="#00AEEF"/>
<path d="M16.3636 21.1818H14.0909V23.4545H16.3636V21.1818Z" fill="#00AEEF"/>
<path d="M18.6364 12.0909H20.9091V14.3637H18.6364V12.0909Z" fill="#00AEEF"/>
<path d="M20.9091 16.6364H18.6364V23.4545H20.9091V16.6364Z" fill="#00AEEF"/>
<path fill-rule="evenodd" clip-rule="evenodd" d="M5 5.27273C5 4.66996 5.23945 4.09189 5.66567 3.66567C6.09189 3.23945 6.66996 3 7.27273 3H23.1818C23.7846 3 24.3627 3.23945 24.7889 3.66567C25.2151 4.09189 25.4545 4.66996 25.4545 5.27273V25.7273C25.4545 26.33 25.2151 26.9081 24.7889 27.3343C24.3627 27.7606 23.7846 28 23.1818 28H7.27273C6.66996 28 6.09189 27.7606 5.66567 27.3343C5.23945 26.9081 5 26.33 5 25.7273V5.27273ZM7.27273 5.27273H23.1818V25.7273H7.27273V5.27273Z" fill="#00AEEF"/>
</svg>
