<svg width="30" height="30" viewBox="0 0 30 30" fill="none" xmlns="http://www.w3.org/2000/svg">
<path d="M23.685 13.89C23.1388 9.5875 19.4538 6.25 15.005 6.25C11.56 6.25 8.56751 8.26375 7.20126 11.4375C4.51626 12.24 2.505 14.775 2.505 17.5C2.505 20.9462 5.30875 23.75 8.755 23.75H10.005V21.25H8.755C6.6875 21.25 5.00501 19.5675 5.00501 17.5C5.00501 15.745 6.50376 14.0538 8.34626 13.73L9.0725 13.6025L9.3125 12.905C10.1913 10.3413 12.3725 8.75 15.005 8.75C18.4513 8.75 21.255 11.5538 21.255 15V16.25H22.505C23.8838 16.25 25.005 17.3713 25.005 18.75C25.005 20.1287 23.8838 21.25 22.505 21.25H20.005V23.75H22.505C25.2625 23.75 27.505 21.5075 27.505 18.75C27.5035 17.6294 27.1264 16.5416 26.4339 15.6606C25.7414 14.7796 24.7735 14.1562 23.685 13.89Z" fill="#00AEEF"/>
<path d="M16.255 17.5V12.5H13.755V17.5H10.005L15.005 23.75L20.005 17.5H16.255Z" fill="#00AEEF"/>
</svg>
