<svg width="20" height="20" viewBox="0 0 20 20" fill="none" xmlns="http://www.w3.org/2000/svg">
<path d="M10 2.5C5.86437 2.5 2.5 5.86437 2.5 10C2.5 14.1356 5.86437 17.5 10 17.5C14.1356 17.5 17.5 14.1356 17.5 10C17.5 5.86437 14.1356 2.5 10 2.5ZM10 3.75C13.4594 3.75 16.25 6.54063 16.25 10C16.25 13.4594 13.4594 16.25 10 16.25C6.54063 16.25 3.75 13.4594 3.75 10C3.75 6.54063 6.54063 3.75 10 3.75ZM10 6.25C8.625 6.25 7.5 7.375 7.5 8.75H8.75C8.75 8.05188 9.30188 7.5 10 7.5C10.6981 7.5 11.25 8.05188 11.25 8.75C11.2498 8.98357 11.1762 9.21116 11.0394 9.40052C10.9027 9.58987 10.7098 9.73139 10.4881 9.805L10.2344 9.8825C9.98456 9.96667 9.76737 10.1269 9.61325 10.3408C9.45913 10.5547 9.37582 10.8114 9.375 11.075V11.875H10.625V11.0744L10.8787 10.9963C11.3497 10.838 11.7592 10.5362 12.05 10.1334C12.3407 9.73055 12.4981 9.2468 12.5 8.75C12.5 7.375 11.375 6.25 10 6.25ZM9.375 12.5V13.75H10.625V12.5H9.375Z" fill="#00AEEF"/>
</svg>
