<svg width="26" height="30" viewBox="0 0 26 30" fill="none" xmlns="http://www.w3.org/2000/svg">
<path d="M20 11.4286H22.8571C23.6149 11.4286 24.3416 11.7296 24.8774 12.2654C25.4133 12.8012 25.7143 13.528 25.7143 14.2857V27.1429C25.7143 27.9006 25.4133 28.6273 24.8774 29.1632C24.3416 29.699 23.6149 30 22.8571 30H2.85714C2.09938 30 1.37266 29.699 0.836838 29.1632C0.301019 28.6273 0 27.9006 0 27.1429V14.2857C0 13.528 0.301019 12.8012 0.836838 12.2654C1.37266 11.7296 2.09938 11.4286 2.85714 11.4286H5.71429V14.2857H2.85714V27.1429H22.8571V14.2857H20V11.4286ZM5 7.85714L7.02 9.87714L11.4286 5.46857V20H14.2857V5.46857L18.6943 9.87714L20.7143 7.85714L12.8571 0L5 7.85714Z" fill="#00AEEF"/>
</svg>
