<svg width="16" height="16" viewBox="0 0 16 16" fill="none" xmlns="http://www.w3.org/2000/svg">
<path d="M14.6667 7.4445H8.55555V1.33339C8.55555 1.18605 8.49702 1.04474 8.39283 0.940551C8.28864 0.836364 8.14733 0.777832 7.99999 0.777832C7.85265 0.777832 7.71134 0.836364 7.60715 0.940551C7.50297 1.04474 7.44444 1.18605 7.44444 1.33339V7.4445H1.33332C1.18598 7.4445 1.04467 7.50303 0.940487 7.60722C0.836301 7.7114 0.777769 7.85271 0.777769 8.00005C0.775027 8.07226 0.787795 8.14421 0.815211 8.21106C0.842626 8.27791 0.884053 8.33811 0.9367 8.3876C0.989347 8.43709 1.05199 8.47471 1.12041 8.49794C1.18883 8.52118 1.26143 8.52947 1.33332 8.52228H7.44444V14.6667C7.44444 14.8141 7.50297 14.9554 7.60715 15.0596C7.71134 15.1637 7.85265 15.2223 7.99999 15.2223C8.14733 15.2223 8.28864 15.1637 8.39283 15.0596C8.49702 14.9554 8.55555 14.8141 8.55555 14.6667V8.55561H14.6667C14.814 8.55561 14.9553 8.49708 15.0595 8.39289C15.1637 8.2887 15.2222 8.1474 15.2222 8.00005C15.2222 7.85271 15.1637 7.7114 15.0595 7.60722C14.9553 7.50303 14.814 7.4445 14.6667 7.4445Z" fill="#4F4F4F"/>
</svg>
